<svg width="1198" height="209" viewBox="0 0 1198 209" fill="none" xmlns="http://www.w3.org/2000/svg">
<path d="M141.969 52.1866H22.5593C12.2145 52.1866 3.82837 60.3441 3.82837 70.4067V187.699C3.82837 197.761 12.2145 205.919 22.5593 205.919H141.969C152.314 205.919 160.7 197.761 160.7 187.699V70.4067C160.7 60.3441 152.314 52.1866 141.969 52.1866Z" fill="#92C707" stroke="#92C707" stroke-width="6"/>
<path d="M55.5629 59.5572V100.656C55.5629 101.656 54.7264 102.466 53.6944 102.466H13.7789C13.6086 102.466 13.4391 102.488 13.2751 102.533L6.42909 104.389C5.98358 104.509 5.60017 104.786 5.3531 105.165L2.28868 109.863C2.10009 110.152 2 110.487 2 110.829V148.215C2 148.468 2.05487 148.719 2.16106 148.95L5.4715 156.162C5.64333 156.537 5.94142 156.844 6.31685 157.032L13.117 160.456C13.3832 160.59 13.6789 160.66 13.979 160.66H53.6944C54.7264 160.66 55.5629 161.47 55.5629 162.469V195.81C55.5629 195.896 55.5691 195.982 55.5816 196.066L56.6902 203.581C56.7655 204.09 57.0614 204.545 57.5036 204.83L61.9431 207.696C62.2501 207.894 62.6107 208 62.9795 208H102.586C102.99 208 103.384 207.873 103.707 207.638L107.661 204.767C108.004 204.518 108.248 204.162 108.352 203.759L110.315 196.155C110.353 196.011 110.371 195.864 110.371 195.716V158.55C110.371 157.55 111.208 156.74 112.24 156.74H152.634C152.898 156.74 153.159 156.686 153.4 156.581L158.773 154.24C159.093 154.101 159.366 153.877 159.561 153.594L162.686 149.055C162.891 148.758 163 148.409 163 148.052V112.294C163 111.979 162.915 111.669 162.754 111.396L159.544 105.957C159.361 105.646 159.087 105.396 158.757 105.236L153.429 102.657C153.17 102.531 152.884 102.466 152.594 102.466H110.371C109.339 102.466 108.503 101.656 108.503 100.656V59.752C108.503 59.4854 108.442 59.2225 108.325 58.9813L106.119 54.4427C106.048 54.2956 105.956 54.1587 105.847 54.0356L102.834 50.632C102.479 50.231 101.961 50 101.415 50H61.6715C61.1521 50 60.6557 50.2093 60.3026 50.5783L57.1448 53.8704C56.9244 54.1008 56.7693 54.3818 56.6952 54.6875L55.6127 59.1429C55.5797 59.2786 55.5629 59.4179 55.5629 59.5572Z" fill="white" stroke="white"/>
<path d="M132.778 2.99615V9.63327C132.778 10.5766 131.992 11.3414 131.022 11.3414H124.61C124.452 11.3414 124.294 11.3621 124.142 11.4031L123.464 11.5854C123.046 11.6977 122.686 11.956 122.452 12.311L122.344 12.4742C122.164 12.7491 122.068 13.0687 122.068 13.3951V20.1181C122.068 20.36 122.12 20.5991 122.223 20.8197L122.562 21.5535C122.726 21.9064 123.008 22.1949 123.362 22.3717L123.994 22.6873C124.242 22.8111 124.517 22.8756 124.796 22.8756H131.022C131.992 22.8756 132.778 23.6404 132.778 24.5838V29.7449C132.778 29.8268 132.784 29.9086 132.796 29.9897L132.914 30.7811C132.986 31.2646 133.268 31.6949 133.687 31.9634L133.709 31.9774C133.995 32.1607 134.331 32.2584 134.674 32.2584H141.726C142.103 32.2584 142.469 32.141 142.771 31.9233L142.798 31.9039C143.124 31.6694 143.357 31.3325 143.456 30.9503L143.684 30.0744C143.719 29.9373 143.738 29.7963 143.738 29.6549V23.8069C143.738 22.8635 144.524 22.0987 145.494 22.0987H151.897C152.142 22.0987 152.385 22.0487 152.609 21.9518L153.054 21.7597C153.355 21.6297 153.612 21.4201 153.796 21.1549L153.961 20.9185C154.157 20.636 154.261 20.303 154.261 19.9621V13.653C154.261 13.3523 154.18 13.0571 154.025 12.7969L153.78 12.3862C153.607 12.0946 153.348 11.8595 153.038 11.7104L152.636 11.5176C152.394 11.4017 152.128 11.3414 151.859 11.3414H145.12C144.15 11.3414 143.364 10.5766 143.364 9.63327V3.18176C143.364 2.92731 143.306 2.6761 143.193 2.44641L142.968 1.98892C142.901 1.84982 142.813 1.72034 142.709 1.60402L142.644 1.53051C142.311 1.15705 141.826 0.942627 141.318 0.942627H134.567C134.101 0.942627 133.656 1.1299 133.336 1.46008C133.134 1.66927 132.991 1.92634 132.923 2.20573L132.826 2.59992C132.794 2.72968 132.778 2.86268 132.778 2.99615Z" fill="#92C707"/>
<path d="M176.859 15.1618V28.0142C176.859 28.9576 176.073 29.7223 175.103 29.7223H162.577C162.419 29.7223 162.261 29.7431 162.109 29.784L160.298 30.2707C159.881 30.3829 159.52 30.6413 159.287 30.9962L158.636 31.9852C158.455 32.2601 158.359 32.5797 158.359 32.9061V45.1492C158.359 45.3912 158.412 45.6303 158.514 45.8507L159.397 47.7581C159.561 48.1111 159.843 48.3992 160.197 48.5763L161.961 49.4565C162.209 49.5807 162.484 49.645 162.763 49.645H175.103C176.073 49.645 176.859 50.4097 176.859 51.3531V61.5997C176.859 61.6816 176.865 61.7636 176.877 61.8445L177.176 63.8527C177.248 64.3361 177.529 64.7665 177.949 65.0353L178.786 65.5705C179.072 65.7538 179.408 65.8518 179.751 65.8518H192.736C193.112 65.8518 193.478 65.7345 193.781 65.517L194.532 64.9755C194.859 64.7409 195.09 64.4044 195.19 64.0224L195.735 61.9293C195.771 61.7921 195.789 61.6509 195.789 61.5097V50.0111C195.789 49.0682 196.575 48.303 197.545 48.303H210.152C210.398 48.303 210.641 48.2529 210.865 48.1561L212.215 47.573C212.516 47.4432 212.774 47.2337 212.958 46.9683L213.666 45.9492C213.862 45.6668 213.966 45.3337 213.966 44.9932V33.3813C213.966 33.0807 213.885 32.7854 213.73 32.5252L212.942 31.2018C212.768 30.9102 212.51 30.6751 212.199 30.526L210.892 29.8986C210.65 29.7826 210.385 29.7223 210.115 29.7223H196.9C195.93 29.7223 195.144 28.9576 195.144 28.0142V15.3474C195.144 15.0929 195.085 14.8417 194.973 14.612L194.386 13.4156C194.318 13.2765 194.23 13.1471 194.127 13.0307L193.518 12.3487C193.184 11.9753 192.7 11.7609 192.192 11.7609H179.446C178.962 11.7609 178.499 11.9554 178.167 12.2983L177.61 12.8745C177.4 13.0917 177.251 13.3587 177.181 13.6489L176.907 14.7655C176.875 14.8953 176.859 15.0283 176.859 15.1618Z" fill="#92C707"/>
<path d="M96.1042 24.5281V28.0575C96.1042 29.001 95.3181 29.7657 94.3482 29.7657H90.993C90.8349 29.7657 90.6775 29.7865 90.5253 29.8274L90.2461 29.9024C89.9358 29.9858 89.6678 30.1779 89.4945 30.4416C89.3599 30.6459 89.2885 30.8834 89.2885 31.126V35.2175C89.2885 35.4593 89.3411 35.6985 89.4436 35.919L89.5115 36.066C89.6748 36.419 89.9569 36.7075 90.311 36.8843L90.3772 36.9174C90.6254 37.0411 90.8999 37.1057 91.1791 37.1057H94.3482C95.3181 37.1057 96.1042 37.8704 96.1042 38.8138V41.4323C96.1042 41.5142 96.11 41.596 96.1223 41.6771L96.1891 42.1268C96.2359 42.4406 96.4185 42.7201 96.6907 42.8943C96.8768 43.0133 97.0946 43.0765 97.317 43.0765H101.788C102.034 43.0765 102.274 42.9997 102.472 42.8573C102.685 42.7042 102.837 42.4838 102.902 42.2339L103.025 41.7618C103.06 41.6247 103.079 41.4838 103.079 41.3423V38.3194C103.079 37.376 103.865 36.6113 104.835 36.6113H108.139C108.382 36.6113 108.622 36.5617 108.844 36.4658L108.924 36.4312C109.17 36.3252 109.38 36.1543 109.53 35.9379C109.69 35.7075 109.775 35.4359 109.775 35.1579V31.3788C109.775 31.0944 109.698 30.8137 109.551 30.5676C109.388 30.2937 109.144 30.0713 108.852 29.9313C108.625 29.8223 108.376 29.7657 108.122 29.7657H104.597C103.627 29.7657 102.841 29.001 102.841 28.0575V24.7138C102.841 24.4593 102.782 24.2081 102.67 23.9784L102.596 23.827C102.548 23.7299 102.487 23.6396 102.415 23.5584C102.182 23.2979 101.845 23.1483 101.49 23.1483H97.2427C96.9459 23.1483 96.6626 23.2675 96.4595 23.4776C96.3307 23.6107 96.24 23.7743 96.1961 23.9521L96.1522 24.1319C96.1206 24.2617 96.1042 24.3947 96.1042 24.5281Z" fill="#92C707"/>
<path d="M1092.74 103.25L1083.01 111.954C1082.3 112.593 1081.19 112.548 1080.53 111.854L1072.05 102.888C1071.94 102.775 1071.82 102.677 1071.69 102.595L1070.09 101.629C1069.73 101.406 1069.29 101.323 1068.86 101.396L1067.67 101.6C1067.34 101.657 1067.03 101.805 1066.79 102.025L1057.53 110.317C1057.34 110.48 1057.2 110.68 1057.1 110.903L1056.26 112.827C1056.1 113.182 1056.07 113.58 1056.18 113.953L1056.71 115.812C1056.78 116.073 1056.92 116.314 1057.11 116.513L1065.46 125.345C1066.12 126.04 1066.07 127.12 1065.36 127.759L1057.61 134.698C1057.54 134.753 1057.49 134.813 1057.44 134.877L1056.12 136.451C1055.8 136.83 1055.67 137.322 1055.75 137.805L1055.91 138.766C1055.96 139.095 1056.12 139.402 1056.35 139.648L1065.14 148.941C1065.4 149.21 1065.74 149.393 1066.11 149.462L1067.03 149.633C1067.43 149.708 1067.84 149.646 1068.19 149.459L1070.14 148.431C1070.27 148.364 1070.39 148.282 1070.5 148.186L1079.2 140.399C1079.91 139.76 1081.02 139.805 1081.68 140.499L1090.21 149.522C1090.38 149.698 1090.58 149.838 1090.81 149.933L1092.16 150.505C1092.47 150.632 1092.8 150.674 1093.12 150.626L1094.37 150.443C1094.72 150.392 1095.04 150.242 1095.3 150.011L1104.09 142.147C1104.31 141.943 1104.48 141.686 1104.57 141.398L1105.04 139.938C1105.15 139.616 1105.15 139.272 1105.05 138.949L1104.64 137.588C1104.56 137.337 1104.43 137.105 1104.24 136.913L1095.29 127.454C1094.64 126.76 1094.68 125.68 1095.4 125.041L1104.98 116.463C1105.17 116.29 1105.32 116.078 1105.42 115.842L1105.93 114.612C1105.99 114.469 1106.02 114.319 1106.04 114.166L1106.15 113.268C1106.2 112.776 1106.03 112.285 1105.7 111.921L1097.06 102.799C1096.73 102.452 1096.27 102.253 1095.79 102.248L1094.98 102.238C1094.67 102.235 1094.37 102.31 1094.1 102.456L1093.07 103.016C1092.95 103.081 1092.84 103.16 1092.74 103.25Z" fill="#92C707"/>
<path d="M209.371 154.128C203.799 154.128 199.122 153.193 195.341 151.321C191.559 149.385 188.674 146.449 186.684 142.513C184.76 138.512 183.798 133.511 183.798 127.51C183.798 121.379 184.76 116.378 186.684 112.507C188.674 108.57 191.559 105.634 195.341 103.698C199.188 101.762 203.865 100.794 209.371 100.794C212.954 100.794 216.171 101.214 219.024 102.053C221.943 102.891 224.463 104.182 226.586 105.924C228.709 107.667 230.302 109.829 231.363 112.41C232.491 114.926 233.054 117.927 233.054 121.412H219.223C219.223 119.089 218.858 117.185 218.128 115.701C217.398 114.216 216.271 113.087 214.745 112.313C213.286 111.539 211.428 111.151 209.172 111.151C206.519 111.151 204.363 111.732 202.704 112.894C201.046 114.055 199.819 115.765 199.023 118.024C198.227 120.283 197.829 123.09 197.829 126.445V128.671C197.829 131.962 198.227 134.737 199.023 136.995C199.885 139.254 201.178 140.964 202.903 142.126C204.628 143.223 206.884 143.771 209.67 143.771C211.925 143.771 213.783 143.384 215.242 142.61C216.768 141.835 217.929 140.674 218.725 139.125C219.521 137.576 219.919 135.705 219.919 133.511H233.054C233.054 136.802 232.491 139.738 231.363 142.319C230.302 144.9 228.709 147.062 226.586 148.804C224.53 150.547 222.042 151.869 219.123 152.773C216.204 153.677 212.954 154.128 209.371 154.128ZM250.235 154.128C248.51 154.128 246.653 153.934 244.662 153.547C242.739 153.16 240.914 152.483 239.189 151.515C237.465 150.482 236.039 149.03 234.911 147.159C233.849 145.223 233.318 142.771 233.318 139.802C233.318 136.254 234.115 133.317 235.707 130.994C237.299 128.671 239.555 126.865 242.473 125.574C245.458 124.219 249.008 123.283 253.121 122.767C257.234 122.25 261.778 121.992 266.753 121.992V118.217C266.753 116.733 266.488 115.443 265.957 114.346C265.493 113.248 264.631 112.377 263.37 111.732C262.176 111.087 260.484 110.764 258.295 110.764C256.106 110.764 254.315 111.022 252.922 111.539C251.595 112.055 250.633 112.733 250.036 113.571C249.506 114.346 249.24 115.217 249.24 116.185V117.346H235.806C235.74 117.023 235.707 116.733 235.707 116.475C235.707 116.152 235.707 115.765 235.707 115.314C235.707 112.345 236.636 109.796 238.493 107.667C240.351 105.473 242.971 103.795 246.354 102.633C249.737 101.472 253.685 100.891 258.196 100.891C263.039 100.891 267.085 101.504 270.336 102.73C273.653 103.956 276.174 105.763 277.898 108.151C279.689 110.538 280.585 113.539 280.585 117.153V140.286C280.585 141.448 280.917 142.319 281.58 142.9C282.31 143.416 283.106 143.674 283.968 143.674H287.252V152.483C286.589 152.805 285.56 153.128 284.167 153.45C282.774 153.838 281.082 154.031 279.092 154.031C277.169 154.031 275.444 153.741 273.918 153.16C272.459 152.644 271.231 151.902 270.236 150.934C269.241 149.902 268.544 148.675 268.146 147.256H267.45C266.322 148.611 264.929 149.805 263.27 150.837C261.678 151.869 259.788 152.676 257.598 153.257C255.476 153.838 253.021 154.128 250.235 154.128ZM254.912 143.965C256.77 143.965 258.428 143.707 259.887 143.19C261.347 142.61 262.574 141.868 263.569 140.964C264.564 139.996 265.327 138.835 265.858 137.479C266.455 136.124 266.753 134.672 266.753 133.124V130.317C263.039 130.317 259.722 130.575 256.802 131.091C253.884 131.543 251.562 132.349 249.837 133.511C248.179 134.672 247.349 136.285 247.349 138.351C247.349 139.512 247.648 140.513 248.245 141.351C248.842 142.19 249.705 142.836 250.832 143.287C251.96 143.739 253.32 143.965 254.912 143.965ZM287.101 152.967V102.053H298.545L299.64 109.022H300.336C301.464 107.344 302.791 105.892 304.316 104.666C305.909 103.44 307.667 102.504 309.59 101.859C311.581 101.214 313.704 100.891 315.959 100.891C319.276 100.891 322.128 101.536 324.517 102.827C326.972 104.118 328.862 106.182 330.189 109.022H330.885C332.013 107.344 333.373 105.892 334.965 104.666C336.557 103.44 338.382 102.504 340.438 101.859C342.495 101.214 344.684 100.891 347.005 100.891C350.323 100.891 353.175 101.472 355.563 102.633C358.018 103.795 359.942 105.698 361.335 108.344C362.728 110.925 363.424 114.281 363.424 118.411V152.967H349.593V120.831C349.593 119.218 349.394 117.863 348.996 116.765C348.664 115.604 348.167 114.7 347.503 114.055C346.84 113.345 346.01 112.829 345.015 112.507C344.02 112.184 342.959 112.023 341.831 112.023C339.974 112.023 338.315 112.507 336.856 113.474C335.396 114.442 334.236 115.765 333.373 117.443C332.577 119.121 332.179 121.057 332.179 123.251V152.967H318.347V120.831C318.347 119.218 318.148 117.863 317.75 116.765C317.419 115.604 316.921 114.7 316.257 114.055C315.594 113.345 314.765 112.829 313.77 112.507C312.841 112.184 311.78 112.023 310.585 112.023C308.794 112.023 307.136 112.507 305.61 113.474C304.151 114.442 302.99 115.765 302.127 117.443C301.331 119.121 300.933 121.057 300.933 123.251V152.967H287.101ZM368.702 170.196V102.053H380.046L381.24 108.925H381.937C383.661 106.151 385.917 104.118 388.704 102.827C391.49 101.536 394.575 100.891 397.958 100.891C402.336 100.891 406.084 101.827 409.202 103.698C412.387 105.57 414.807 108.474 416.466 112.41C418.191 116.346 419.054 121.412 419.054 127.606C419.054 133.608 418.191 138.577 416.466 142.513C414.741 146.449 412.32 149.385 409.202 151.321C406.15 153.193 402.568 154.128 398.455 154.128C396.199 154.128 394.11 153.87 392.186 153.354C390.262 152.902 388.537 152.16 387.012 151.127C385.486 150.095 384.192 148.837 383.131 147.352H382.534V170.196H368.702ZM393.679 143.093C396.465 143.093 398.654 142.577 400.247 141.545C401.905 140.448 403.099 138.835 403.829 136.705C404.558 134.511 404.923 131.833 404.923 128.671V126.445C404.923 123.218 404.558 120.54 403.829 118.411C403.099 116.217 401.905 114.604 400.247 113.571C398.654 112.474 396.465 111.926 393.679 111.926C391.092 111.926 388.969 112.507 387.31 113.668C385.652 114.83 384.425 116.508 383.629 118.701C382.833 120.895 382.435 123.541 382.435 126.638V128.284C382.435 130.543 382.666 132.607 383.131 134.479C383.595 136.285 384.258 137.834 385.121 139.125C386.05 140.416 387.211 141.416 388.604 142.126C389.997 142.771 391.689 143.093 393.679 143.093ZM446.001 154.128C440.23 154.128 435.387 153.193 431.473 151.321C427.559 149.385 424.607 146.449 422.617 142.513C420.626 138.577 419.631 133.575 419.631 127.51C419.631 121.379 420.626 116.378 422.617 112.507C424.607 108.57 427.526 105.667 431.373 103.795C435.287 101.859 440.064 100.891 445.702 100.891C451.01 100.891 455.488 101.827 459.136 103.698C462.785 105.505 465.538 108.344 467.395 112.216C469.253 116.024 470.182 120.96 470.182 127.026V130.51H433.662C433.795 133.478 434.259 135.995 435.055 138.06C435.918 140.125 437.212 141.674 438.936 142.706C440.727 143.674 443.082 144.158 446.001 144.158C447.593 144.158 449.02 143.965 450.28 143.577C451.607 143.19 452.735 142.61 453.663 141.835C454.592 141.061 455.322 140.093 455.852 138.931C456.383 137.77 456.648 136.447 456.648 134.963H470.182C470.182 138.189 469.584 140.996 468.39 143.384C467.196 145.771 465.538 147.772 463.415 149.385C461.293 150.934 458.738 152.128 455.753 152.967C452.834 153.741 449.583 154.128 446.001 154.128ZM433.861 121.992H455.952C455.952 120.056 455.687 118.378 455.156 116.959C454.692 115.54 454.028 114.378 453.166 113.474C452.303 112.571 451.242 111.926 449.981 111.539C448.787 111.087 447.427 110.861 445.901 110.861C443.381 110.861 441.258 111.281 439.533 112.119C437.875 112.894 436.581 114.12 435.652 115.798C434.79 117.411 434.193 119.476 433.861 121.992ZM497.387 154.128C491.682 154.128 486.839 153.193 482.859 151.321C478.879 149.385 475.86 146.449 473.804 142.513C471.747 138.512 470.719 133.511 470.719 127.51C470.719 121.379 471.747 116.378 473.804 112.507C475.86 108.57 478.879 105.667 482.859 103.795C486.839 101.859 491.682 100.891 497.387 100.891C503.225 100.891 508.101 101.859 512.015 103.795C515.995 105.667 519.013 108.57 521.07 112.507C523.126 116.378 524.155 121.379 524.155 127.51C524.155 133.511 523.126 138.512 521.07 142.513C519.013 146.449 515.995 149.385 512.015 151.321C508.101 153.193 503.225 154.128 497.387 154.128ZM497.387 143.674C500.438 143.674 502.86 143.126 504.651 142.029C506.508 140.932 507.868 139.254 508.731 136.995C509.593 134.737 510.025 131.962 510.025 128.671V126.348C510.025 123.057 509.593 120.283 508.731 118.024C507.868 115.765 506.508 114.088 504.651 112.99C502.86 111.829 500.438 111.248 497.387 111.248C494.402 111.248 491.98 111.829 490.123 112.99C488.332 114.088 487.005 115.765 486.143 118.024C485.28 120.283 484.849 123.057 484.849 126.348V128.671C484.849 131.962 485.28 134.737 486.143 136.995C487.005 139.254 488.332 140.932 490.123 142.029C491.98 143.126 494.402 143.674 497.387 143.674ZM490.222 95.7611L498.482 82.9843H512.811L512.91 83.2746L501.069 95.7611H490.222ZM527.309 152.967V102.053H538.752L539.847 109.022H540.543C541.737 107.344 543.163 105.892 544.822 104.666C546.547 103.44 548.471 102.504 550.594 101.859C552.716 101.214 555.038 100.891 557.559 100.891C561.009 100.891 564.027 101.504 566.612 102.73C569.199 103.956 571.189 105.892 572.583 108.538C574.046 111.184 574.772 114.636 574.772 118.895V152.967H560.942V121.024C560.942 119.411 560.743 118.056 560.345 116.959C559.947 115.798 559.35 114.862 558.554 114.152C557.824 113.378 556.895 112.829 555.768 112.507C554.64 112.184 553.38 112.023 551.987 112.023C549.93 112.023 548.073 112.507 546.414 113.474C544.755 114.442 543.462 115.765 542.533 117.443C541.604 119.121 541.14 121.057 541.14 123.251V152.967H527.309ZM580.145 170.196V102.053H591.489L592.683 108.925H593.38C595.107 106.151 597.36 104.118 600.146 102.827C602.933 101.536 606.017 100.891 609.401 100.891C613.779 100.891 617.525 101.827 620.645 103.698C623.829 105.57 626.253 108.474 627.909 112.41C629.636 116.346 630.496 121.412 630.496 127.606C630.496 133.608 629.636 138.577 627.909 142.513C626.182 146.449 623.765 149.385 620.645 151.321C617.595 153.193 614.013 154.128 609.898 154.128C607.645 154.128 605.555 153.87 603.629 153.354C601.703 152.902 599.982 152.16 598.455 151.127C596.927 150.095 595.633 148.837 594.574 147.352H593.977V170.196H580.145ZM605.122 143.093C607.908 143.093 610.097 142.577 611.689 141.545C613.346 140.448 614.54 138.835 615.272 136.705C616.003 134.511 616.366 131.833 616.366 128.671V126.445C616.366 123.218 616.003 120.54 615.272 118.411C614.54 116.217 613.346 114.604 611.689 113.571C610.097 112.474 607.908 111.926 605.122 111.926C602.535 111.926 600.41 112.507 598.753 113.668C597.097 114.83 595.867 116.508 595.071 118.701C594.275 120.895 593.877 123.541 593.877 126.638V128.284C593.877 130.543 594.111 132.607 594.574 134.479C595.036 136.285 595.704 137.834 596.564 139.125C597.495 140.416 598.654 141.416 600.047 142.126C601.44 142.771 603.132 143.093 605.122 143.093ZM633.663 152.967V82.9843H647.495V152.967H633.663ZM670.083 154.128C664.774 154.128 660.565 152.709 657.446 149.869C654.326 147.03 652.769 142.448 652.769 136.124V102.053H666.6V133.898C666.6 135.576 666.799 136.995 667.197 138.157C667.595 139.254 668.157 140.157 668.889 140.867C669.685 141.577 670.645 142.093 671.775 142.416C672.904 142.739 674.163 142.9 675.556 142.9C677.611 142.9 679.472 142.416 681.129 141.448C682.785 140.48 684.079 139.157 685.009 137.479C685.94 135.737 686.402 133.801 686.402 131.672V102.053H700.234V152.967H688.89L687.895 145.997H687.199C685.94 147.61 684.447 149.03 682.721 150.256C681.064 151.482 679.174 152.418 677.049 153.063C674.924 153.773 672.606 154.128 670.083 154.128ZM727.101 154.128C723.455 154.128 720.171 153.741 717.25 152.967C714.329 152.192 711.842 151.127 709.787 149.772C707.732 148.353 706.14 146.675 705.011 144.739C703.951 142.803 703.418 140.609 703.418 138.157C703.418 137.899 703.418 137.641 703.418 137.383C703.418 137.125 703.453 136.931 703.518 136.802H716.852C716.852 136.931 716.852 137.06 716.852 137.189C716.852 137.318 716.852 137.447 716.852 137.576C716.916 139.189 717.449 140.513 718.444 141.545C719.439 142.513 720.733 143.223 722.325 143.674C723.982 144.126 725.708 144.352 727.499 144.352C729.091 144.352 730.619 144.223 732.077 143.965C733.605 143.642 734.863 143.093 735.858 142.319C736.918 141.545 737.45 140.544 737.45 139.319C737.45 137.77 736.789 136.576 735.46 135.737C734.202 134.898 732.51 134.221 730.385 133.704C728.331 133.188 726.071 132.607 723.619 131.962C721.365 131.446 719.106 130.865 716.852 130.22C714.598 129.51 712.538 128.607 710.682 127.51C708.891 126.412 707.434 124.993 706.304 123.251C705.174 121.444 704.612 119.185 704.612 116.475C704.612 113.829 705.21 111.539 706.404 109.603C707.598 107.602 709.225 105.957 711.28 104.666C713.404 103.375 715.857 102.44 718.643 101.859C721.494 101.214 724.549 100.891 727.798 100.891C730.848 100.891 733.704 101.214 736.356 101.859C739.007 102.44 741.331 103.344 743.321 104.569C745.311 105.731 746.868 107.215 747.998 109.022C749.128 110.764 749.69 112.733 749.69 114.926C749.69 115.378 749.69 115.798 749.69 116.185C749.69 116.572 749.655 116.83 749.59 116.959H736.356V116.185C736.356 115.023 735.993 114.055 735.261 113.281C734.529 112.442 733.47 111.796 732.077 111.345C730.748 110.893 729.127 110.667 727.201 110.667C725.872 110.667 724.649 110.764 723.519 110.958C722.46 111.151 721.529 111.442 720.733 111.829C719.937 112.216 719.305 112.7 718.842 113.281C718.444 113.797 718.245 114.442 718.245 115.217C718.245 116.314 718.708 117.217 719.638 117.927C720.633 118.572 721.927 119.121 723.519 119.572C725.111 120.024 726.867 120.508 728.793 121.024C731.181 121.67 733.669 122.315 736.256 122.96C738.908 123.541 741.366 124.348 743.62 125.38C745.873 126.412 747.7 127.897 749.093 129.833C750.486 131.704 751.182 134.253 751.182 137.479C751.182 140.577 750.55 143.19 749.292 145.32C748.098 147.449 746.406 149.159 744.217 150.45C742.028 151.741 739.476 152.676 736.555 153.257C733.634 153.838 730.485 154.128 727.101 154.128Z" fill="#92C707"/>
<path d="M785.729 146.817C783.698 146.817 781.79 146.608 779.993 146.191C778.237 145.774 776.674 145.166 775.31 144.369C773.981 143.572 772.928 142.585 772.149 141.408C771.406 140.231 771.037 138.865 771.037 137.309C771.037 137.157 771.037 137.024 771.037 136.91C771.037 136.758 771.055 136.625 771.096 136.512H780.169C780.169 136.587 780.169 136.682 780.169 136.796C780.169 136.872 780.169 136.948 780.169 137.024C780.21 137.859 780.479 138.561 780.988 139.131C781.532 139.662 782.235 140.06 783.095 140.326C783.956 140.554 784.892 140.668 785.905 140.668C786.648 140.668 787.427 140.592 788.246 140.44C789.107 140.288 789.827 140.023 790.412 139.643C790.997 139.263 791.29 138.713 791.29 137.992C791.29 137.195 790.921 136.587 790.178 136.17C789.476 135.753 788.521 135.411 787.31 135.145C786.139 134.842 784.869 134.557 783.505 134.291C782.141 133.987 780.754 133.646 779.349 133.266C777.985 132.886 776.715 132.374 775.544 131.729C774.415 131.045 773.496 130.173 772.793 129.11C772.091 128.047 771.74 126.699 771.74 125.067C771.74 123.321 772.108 121.84 772.852 120.626C773.63 119.373 774.684 118.367 776.013 117.608C777.341 116.849 778.863 116.299 780.578 115.957C782.334 115.615 784.19 115.445 786.139 115.445C787.936 115.445 789.634 115.615 791.231 115.957C792.87 116.299 794.334 116.83 795.622 117.551C796.95 118.234 797.981 119.127 798.724 120.227C799.467 121.29 799.836 122.543 799.836 123.985C799.836 124.175 799.819 124.384 799.778 124.612C799.778 124.801 799.778 124.934 799.778 125.01H790.763V124.555C790.763 123.909 790.547 123.378 790.119 122.96C789.692 122.543 789.107 122.22 788.363 121.992C787.62 121.726 786.8 121.594 785.905 121.594C785.32 121.594 784.734 121.651 784.149 121.765C783.604 121.84 783.095 121.974 782.627 122.163C782.159 122.315 781.767 122.543 781.456 122.846C781.181 123.15 781.047 123.53 781.047 123.985C781.047 124.555 781.298 125.029 781.807 125.409C782.317 125.75 782.996 126.035 783.856 126.263C784.752 126.49 785.729 126.737 786.783 127.003C788.229 127.306 789.751 127.629 791.349 127.971C792.947 128.274 794.451 128.73 795.856 129.337C797.302 129.907 798.449 130.78 799.309 131.956C800.205 133.095 800.656 134.671 800.656 136.682C800.656 138.58 800.263 140.194 799.485 141.522C798.706 142.813 797.629 143.856 796.266 144.654C794.902 145.413 793.321 145.963 791.524 146.305C789.727 146.646 787.796 146.817 785.729 146.817ZM829.226 146.134V116.128H837.128L837.831 120.398H838.24C838.943 119.373 839.78 118.481 840.757 117.722C841.77 116.963 842.882 116.394 844.094 116.014C845.305 115.634 846.593 115.445 847.957 115.445C850.064 115.445 851.861 115.862 853.342 116.697C854.823 117.494 855.959 118.728 856.737 120.398H857.147C857.849 119.373 858.686 118.481 859.664 117.722C860.677 116.963 861.789 116.394 863 116.014C864.247 115.634 865.535 115.445 866.864 115.445C869.012 115.445 870.826 115.843 872.307 116.64C873.788 117.399 874.924 118.576 875.702 120.17C876.522 121.726 876.932 123.719 876.932 126.149V146.134H867.332V127.572C867.332 126.737 867.232 126.035 867.039 125.466C866.846 124.858 866.571 124.365 866.22 123.985C865.869 123.568 865.418 123.264 864.874 123.074C864.329 122.885 863.744 122.789 863.117 122.789C862.105 122.789 861.186 123.055 860.366 123.587C859.588 124.08 858.979 124.764 858.552 125.636C858.124 126.472 857.908 127.458 857.908 128.597V146.134H848.308V127.572C848.308 126.737 848.209 126.035 848.016 125.466C847.822 124.858 847.547 124.365 847.196 123.985C846.845 123.568 846.394 123.264 845.85 123.074C845.305 122.885 844.72 122.789 844.094 122.789C843.081 122.789 842.162 123.055 841.343 123.587C840.564 124.08 839.938 124.764 839.47 125.636C839.042 126.472 838.826 127.458 838.826 128.597V146.134H829.226ZM915.476 146.817C914.189 146.817 912.924 146.685 911.672 146.419C910.466 146.191 909.354 145.774 908.335 145.166C907.364 144.521 906.579 143.648 905.994 142.547C905.408 141.446 905.116 140.06 905.116 138.39C905.116 136.227 905.584 134.462 906.521 133.095C907.457 131.729 908.804 130.666 910.56 129.907C912.357 129.11 914.505 128.559 916.998 128.256C919.539 127.952 922.366 127.8 925.486 127.8V125.921C925.486 125.048 925.31 124.327 924.959 123.757C924.608 123.15 924.081 122.694 923.378 122.391C922.717 122.049 921.821 121.878 920.686 121.878C919.673 121.878 918.778 121.992 917.993 122.22C917.256 122.448 916.688 122.789 916.296 123.245C915.91 123.662 915.711 124.175 915.711 124.782V125.295H906.345C906.31 125.105 906.286 124.953 906.286 124.839C906.286 124.687 906.286 124.498 906.286 124.27C906.286 122.486 906.854 120.929 907.984 119.601C909.155 118.273 910.817 117.248 912.959 116.526C915.108 115.805 917.701 115.445 920.744 115.445C923.595 115.445 926.071 115.786 928.178 116.469C930.327 117.153 932.006 118.196 933.212 119.601C934.465 121.006 935.085 122.846 935.085 125.124V137.935C935.085 138.58 935.261 139.092 935.612 139.472C936.004 139.852 936.473 140.042 937.017 140.042H939.007V145.792C938.58 145.982 937.895 146.191 936.958 146.419C936.063 146.685 934.968 146.817 933.681 146.817C932.358 146.817 931.187 146.646 930.169 146.305C929.197 146.001 928.377 145.565 927.71 144.995C927.09 144.388 926.656 143.686 926.422 142.889H926.013C925.275 143.648 924.397 144.331 923.378 144.938C922.407 145.546 921.254 146.001 919.925 146.305C918.637 146.646 917.156 146.817 915.476 146.817ZM919.047 140.383C919.984 140.383 920.844 140.251 921.622 139.985C922.407 139.719 923.068 139.358 923.613 138.903C924.198 138.409 924.649 137.821 924.959 137.138C925.31 136.455 925.486 135.714 925.486 134.917V132.924C923.261 132.924 921.353 133.076 919.749 133.38C918.151 133.683 916.922 134.158 916.062 134.803C915.207 135.448 914.774 136.265 914.774 137.252C914.774 137.973 914.95 138.58 915.301 139.074C915.693 139.529 916.202 139.871 916.823 140.099C917.449 140.288 918.192 140.383 919.047 140.383ZM965.769 146.134V116.128H973.671L974.374 120.74H974.783C975.252 119.715 975.819 118.804 976.481 118.007C977.183 117.171 978.026 116.526 978.998 116.071C980.016 115.615 981.128 115.388 982.334 115.388C983.037 115.388 983.681 115.463 984.266 115.615C984.851 115.729 985.284 115.862 985.554 116.014V124.156H982.51C981.304 124.156 980.227 124.327 979.29 124.668C978.395 124.972 977.652 125.466 977.066 126.149C976.481 126.794 976.053 127.591 975.778 128.54C975.509 129.489 975.369 130.59 975.369 131.843V146.134H965.769ZM1023.27 146.817C1021.28 146.817 1019.58 146.533 1018.17 145.963C1016.81 145.356 1015.77 144.464 1015.07 143.287C1014.41 142.11 1014.08 140.687 1014.08 139.017V122.903H1010.04V116.128H1014.37L1016.36 107.359H1023.62V116.128H1029.65V122.903H1023.62V136.739C1023.62 137.802 1023.83 138.618 1024.26 139.188C1024.69 139.757 1025.47 140.042 1026.6 140.042H1029.65V145.849C1029.14 146.001 1028.49 146.153 1027.72 146.305C1026.97 146.494 1026.21 146.628 1025.43 146.703C1024.65 146.779 1023.93 146.817 1023.27 146.817ZM1126.21 146.134V136.625H1136.39V146.134H1126.21ZM1166.38 146.134V143.8C1166.38 142.13 1166.72 140.592 1167.38 139.188C1168.04 137.783 1168.94 136.473 1170.07 135.259C1171.2 134.044 1172.45 132.886 1173.82 131.786C1175.22 130.647 1176.63 129.565 1178.03 128.54C1179.63 127.401 1181.13 126.301 1182.54 125.238C1183.94 124.175 1185.07 123.055 1185.93 121.878C1186.83 120.702 1187.28 119.392 1187.28 117.95C1187.28 117.191 1187.09 116.469 1186.69 115.786C1186.34 115.065 1185.76 114.477 1184.94 114.021C1184.16 113.566 1183.11 113.338 1181.78 113.338C1180.45 113.338 1179.34 113.584 1178.44 114.078C1177.55 114.534 1176.86 115.179 1176.39 116.014C1175.92 116.849 1175.69 117.836 1175.69 118.975V120.683H1166.79C1166.75 120.455 1166.72 120.209 1166.68 119.943C1166.68 119.639 1166.68 119.297 1166.68 118.918C1166.68 116.185 1167.32 113.888 1168.61 112.028C1169.9 110.168 1171.71 108.764 1174.05 107.815C1176.43 106.828 1179.26 106.334 1182.54 106.334C1185.04 106.334 1187.18 106.657 1188.98 107.302C1190.81 107.948 1192.31 108.821 1193.48 109.922C1194.66 111.022 1195.52 112.275 1196.06 113.679C1196.65 115.046 1196.94 116.469 1196.94 117.95C1196.94 119.734 1196.6 121.347 1195.94 122.789C1195.28 124.232 1194.36 125.598 1193.19 126.889C1192.02 128.142 1190.66 129.356 1189.09 130.533C1187.53 131.672 1185.86 132.829 1184.06 134.006C1183.17 134.614 1182.35 135.183 1181.6 135.714C1180.9 136.208 1180.33 136.644 1179.9 137.024C1179.48 137.404 1179.16 137.745 1178.97 138.049H1197.29V146.134H1166.38Z" fill="#5A595A"/>
</svg>
