<svg width="180" height="70" viewBox="0 0 180 70" fill="none" xmlns="http://www.w3.org/2000/svg">
<path d="M62.9553 62.6001H52.6765V30.2156C51.7906 33.4769 50.6834 36.4979 49.3938 39.2787L40.8344 58.1251H40.8082H40.8476C40.1178 59.5369 38.9453 60.6521 37.4992 61.4426C34.5029 63.0803 31.715 63.2638 28.4321 61.4284C27.0381 60.6521 25.8917 59.5227 25.1882 58.1817L25.1752 58.1675L25.1621 58.1251L25.123 58.0545L16.5898 39.2787C15.3263 36.5401 14.258 33.5191 13.3591 30.2156V62.6001H3.02808V10.5649H3.04111C4.0703 8.63083 6.285 7.28971 8.83841 7.28971C11.4049 7.28971 13.6066 8.63083 14.6358 10.5649H14.6488L28.1194 41.0012C29.0183 43.0198 29.9172 45.0385 30.8161 47.0575C31.8323 49.4009 32.5748 51.4902 33.0309 53.3113C33.7082 50.9679 35.3369 46.8597 37.9293 41.0012L51.3347 10.5649H51.361C52.377 8.63083 54.5915 7.28971 57.1451 7.28971C57.4968 7.28971 57.8487 7.31794 58.1872 7.36029H58.1613C65.1048 7.31794 72.0488 7.28971 79.0056 7.26147C75.7878 7.41675 73.0649 8.03792 70.7198 9.05434C68.0101 10.1837 65.7955 11.9059 64.0888 14.2071C63.685 14.7294 63.2941 15.2799 62.9553 15.8446C61.4571 18.2727 60.5975 21.1808 60.5975 24.3007C60.5975 27.4206 61.4571 30.3286 62.9553 32.7568V32.8981L63.2551 33.0534C66.5509 38.4599 72.0357 41.1705 79.735 41.1705H89.4667L99.4069 41.1987C99.5373 41.1847 99.6675 41.1705 99.7978 41.1705H100.123C101.491 41.1705 102.703 41.5801 103.745 42.3988C103.81 42.4409 103.862 42.4834 103.915 42.5258C104.384 42.9493 104.748 43.4576 105.009 44.0365C105.204 44.5587 105.308 45.1234 105.308 45.7586C105.308 46.1115 105.283 46.4644 105.217 46.7752C105.035 47.5797 104.67 48.2007 104.214 48.6666C104.084 48.8078 103.94 48.9207 103.784 49.0337C103.537 49.2313 103.276 49.3866 103.002 49.5278C102.104 49.9655 101.075 50.1348 100.254 50.1913H62.5778V62.5719H62.9553V62.6001Z" fill="white"/>
<path d="M116.721 7.39398H126.987V39.7961C127.873 36.5206 128.98 33.4993 130.27 30.7178L138.842 11.8837L138.856 11.8695H138.816C139.533 10.5142 140.653 9.41292 142.06 8.6223C144.991 6.9563 147.519 6.78687 150.711 8.29756C152.365 9.07407 153.694 10.3165 154.489 11.8131L154.502 11.8272L154.515 11.8695L154.554 11.9402L163.074 30.7178C164.338 33.4568 165.406 36.4782 166.305 39.7961V7.39398H176.635V59.4351H176.622C175.593 61.3834 173.391 62.7105 170.838 62.7105C168.272 62.7105 166.057 61.3834 165.041 59.4351L151.544 28.9954C150.645 26.9764 149.759 24.9575 148.86 22.9526C147.831 20.5948 147.088 18.5053 146.646 16.6839C145.981 19.0418 144.339 23.1362 141.748 28.9954L128.329 59.4351H128.316C127.3 61.3834 125.085 62.7105 122.518 62.7105C122.167 62.7105 121.815 62.6963 121.476 62.6399H121.502C114.559 62.6823 107.615 62.7105 100.658 62.7386C103.876 62.5833 106.625 61.9623 108.943 60.9457C111.666 59.8161 113.868 58.1079 115.575 55.7924C115.992 55.2698 116.37 54.7194 116.721 54.1545C118.206 51.7263 119.093 48.8176 119.093 45.6976C119.093 42.5775 118.206 39.6688 116.721 37.2406V37.0995L116.409 36.9441C113.113 31.5366 107.628 28.8259 99.9287 28.8259H90.21L80.2568 28.7977C80.1263 28.8118 79.9961 28.8259 79.8658 28.8259H79.5533C78.1722 28.8259 76.9738 28.4165 75.9186 27.6117C75.8665 27.5694 75.8012 27.5128 75.7491 27.4705C75.2932 27.0469 74.9154 26.5387 74.6677 25.9598C74.4594 25.4516 74.3552 24.8727 74.3552 24.2515C74.3552 23.8845 74.3811 23.5456 74.4594 23.2208C74.6418 22.4161 74.9935 21.8091 75.4496 21.3289C75.5799 21.2019 75.7232 21.0748 75.8793 20.9619C76.1269 20.7784 76.4005 20.6089 76.674 20.4677C77.573 20.0301 78.589 19.8606 79.4231 19.8183H117.099V7.43633H116.721V7.39398Z" fill="white"/>
</svg>
