<svg width="475" height="114" viewBox="0 0 475 114" fill="none" xmlns="http://www.w3.org/2000/svg">
<g filter="url(#filter0_d_12_7)">
<g filter="url(#filter1_d_12_7)">
<rect x="4" width="467" height="106" rx="12" fill="#69DF0D"/>
</g>
<path d="M53.0103 52.3636C53.0103 54.9015 52.5293 57.0606 51.5672 58.8409C50.6126 60.6212 49.3096 61.9811 47.6581 62.9205C46.0141 63.8523 44.1656 64.3182 42.1126 64.3182C40.0444 64.3182 38.1884 63.8485 36.5444 62.9091C34.9005 61.9697 33.6012 60.6098 32.6467 58.8295C31.6922 57.0492 31.2149 54.8939 31.2149 52.3636C31.2149 49.8258 31.6922 47.6667 32.6467 45.8864C33.6012 44.1061 34.9005 42.75 36.5444 41.8182C38.1884 40.8788 40.0444 40.4091 42.1126 40.4091C44.1656 40.4091 46.0141 40.8788 47.6581 41.8182C49.3096 42.75 50.6126 44.1061 51.5672 45.8864C52.5293 47.6667 53.0103 49.8258 53.0103 52.3636ZM48.0217 52.3636C48.0217 50.7197 47.7755 49.3333 47.2831 48.2045C46.7982 47.0758 46.1126 46.2197 45.2262 45.6364C44.3399 45.053 43.302 44.7614 42.1126 44.7614C40.9232 44.7614 39.8853 45.053 38.999 45.6364C38.1126 46.2197 37.4232 47.0758 36.9308 48.2045C36.4459 49.3333 36.2035 50.7197 36.2035 52.3636C36.2035 54.0076 36.4459 55.3939 36.9308 56.5227C37.4232 57.6515 38.1126 58.5076 38.999 59.0909C39.8853 59.6742 40.9232 59.9659 42.1126 59.9659C43.302 59.9659 44.3399 59.6742 45.2262 59.0909C46.1126 58.5076 46.7982 57.6515 47.2831 56.5227C47.7755 55.3939 48.0217 54.0076 48.0217 52.3636ZM67.3752 64V40.7273H76.6934C78.4055 40.7273 79.8336 40.9811 80.9775 41.4886C82.1214 41.9962 82.9813 42.7008 83.557 43.6023C84.1328 44.4962 84.4207 45.5265 84.4207 46.6932C84.4207 47.6023 84.2389 48.4015 83.8752 49.0909C83.5116 49.7727 83.0116 50.3333 82.3752 50.7727C81.7464 51.2045 81.0267 51.5114 80.2161 51.6932V51.9205C81.1025 51.9583 81.932 52.2083 82.7048 52.6705C83.4851 53.1326 84.1176 53.7803 84.6025 54.6136C85.0873 55.4394 85.3298 56.4242 85.3298 57.5682C85.3298 58.803 85.0229 59.9053 84.4093 60.875C83.8033 61.8371 82.9055 62.5985 81.7161 63.1591C80.5267 63.7197 79.0608 64 77.3184 64H67.3752ZM72.2957 59.9773H76.307C77.6783 59.9773 78.6783 59.7159 79.307 59.1932C79.9358 58.6629 80.2502 57.9583 80.2502 57.0795C80.2502 56.4356 80.0949 55.8674 79.7843 55.375C79.4737 54.8826 79.0305 54.4962 78.4548 54.2159C77.8866 53.9356 77.2086 53.7955 76.4207 53.7955H72.2957V59.9773ZM72.2957 50.4659H75.9434C76.6176 50.4659 77.2161 50.3485 77.7389 50.1136C78.2692 49.8712 78.6858 49.5303 78.9889 49.0909C79.2995 48.6515 79.4548 48.125 79.4548 47.5114C79.4548 46.6705 79.1555 45.9924 78.557 45.4773C77.9661 44.9621 77.1252 44.7045 76.0343 44.7045H72.2957V50.4659ZM98.3651 44.7841V40.7273H117.479V44.7841H110.354V64H105.49V44.7841H98.3651ZM131.346 64V40.7273H147.028V44.7841H136.267V50.3295H146.221V54.3864H136.267V59.9432H147.074V64H131.346ZM181.126 40.7273V64H176.876L166.751 49.3523H166.581V64H161.66V40.7273H165.978L176.024 55.3636H176.228V40.7273H181.126ZM195.911 64V40.7273H211.593V44.7841H200.832V50.3295H210.786V54.3864H200.832V59.9432H211.639V64H195.911ZM226.225 64V40.7273H235.407C237.165 40.7273 238.665 41.0417 239.907 41.6705C241.157 42.2917 242.108 43.1742 242.759 44.3182C243.418 45.4545 243.748 46.7917 243.748 48.3295C243.748 49.875 243.415 51.2045 242.748 52.3182C242.081 53.4242 241.115 54.2727 239.85 54.8636C238.593 55.4545 237.07 55.75 235.282 55.75H229.134V51.7955H234.487C235.426 51.7955 236.206 51.6667 236.827 51.4091C237.449 51.1515 237.911 50.7652 238.214 50.25C238.524 49.7348 238.68 49.0947 238.68 48.3295C238.68 47.5568 238.524 46.9053 238.214 46.375C237.911 45.8447 237.445 45.4432 236.816 45.1705C236.195 44.8902 235.411 44.75 234.464 44.75H231.146V64H226.225ZM238.793 53.4091L244.577 64H239.146L233.487 53.4091H238.793ZM291.503 48.25C291.344 47.697 291.121 47.2083 290.833 46.7841C290.545 46.3523 290.193 45.9886 289.776 45.6932C289.367 45.3902 288.897 45.1591 288.367 45C287.844 44.8409 287.265 44.7614 286.628 44.7614C285.439 44.7614 284.393 45.0568 283.492 45.6477C282.598 46.2386 281.901 47.0985 281.401 48.2273C280.901 49.3485 280.651 50.7197 280.651 52.3409C280.651 53.9621 280.897 55.3409 281.39 56.4773C281.882 57.6136 282.579 58.4811 283.481 59.0795C284.382 59.6705 285.446 59.9659 286.674 59.9659C287.787 59.9659 288.738 59.7689 289.526 59.375C290.321 58.9735 290.928 58.4091 291.344 57.6818C291.768 56.9545 291.981 56.0947 291.981 55.1023L292.981 55.25H286.981V51.5455H296.719V54.4773C296.719 56.5227 296.287 58.2803 295.424 59.75C294.56 61.2121 293.371 62.3409 291.856 63.1364C290.34 63.9242 288.606 64.3182 286.651 64.3182C284.469 64.3182 282.553 63.8371 280.901 62.875C279.25 61.9053 277.962 60.5303 277.037 58.75C276.121 56.9621 275.662 54.8409 275.662 52.3864C275.662 50.5 275.935 48.8182 276.481 47.3409C277.034 45.8561 277.806 44.5985 278.799 43.5682C279.791 42.5379 280.946 41.7538 282.265 41.2159C283.583 40.678 285.011 40.4091 286.549 40.4091C287.867 40.4091 289.094 40.6023 290.231 40.9886C291.367 41.3674 292.375 41.9053 293.253 42.6023C294.14 43.2992 294.863 44.1288 295.424 45.0909C295.984 46.0455 296.344 47.0985 296.503 48.25H291.503ZM311.135 64V40.7273H320.317C322.075 40.7273 323.575 41.0417 324.817 41.6705C326.067 42.2917 327.018 43.1742 327.669 44.3182C328.328 45.4545 328.658 46.7917 328.658 48.3295C328.658 49.875 328.325 51.2045 327.658 52.3182C326.991 53.4242 326.025 54.2727 324.76 54.8636C323.503 55.4545 321.98 55.75 320.192 55.75H314.044V51.7955H319.397C320.336 51.7955 321.116 51.6667 321.737 51.4091C322.359 51.1515 322.821 50.7652 323.124 50.25C323.434 49.7348 323.59 49.0947 323.59 48.3295C323.59 47.5568 323.434 46.9053 323.124 46.375C322.821 45.8447 322.355 45.4432 321.726 45.1705C321.105 44.8902 320.321 44.75 319.374 44.75H316.056V64H311.135ZM323.703 53.4091L329.487 64H324.056L318.397 53.4091H323.703ZM346.867 64H341.594L349.628 40.7273H355.969L363.992 64H358.719L352.889 46.0455H352.708L346.867 64ZM346.537 54.8523H358.992V58.6932H346.537V54.8523ZM373.783 44.7841V40.7273H392.896V44.7841H385.771V64H380.908V44.7841H373.783ZM411.684 40.7273V64H406.764V40.7273H411.684ZM439.078 47.4205C438.987 46.5038 438.597 45.7917 437.907 45.2841C437.218 44.7765 436.282 44.5227 435.1 44.5227C434.297 44.5227 433.619 44.6364 433.066 44.8636C432.513 45.0833 432.089 45.3902 431.794 45.7841C431.506 46.178 431.362 46.625 431.362 47.125C431.347 47.5417 431.434 47.9053 431.623 48.2159C431.82 48.5265 432.089 48.7955 432.43 49.0227C432.771 49.2424 433.165 49.4356 433.612 49.6023C434.059 49.7614 434.536 49.8977 435.044 50.0114L437.135 50.5114C438.15 50.7386 439.082 51.0417 439.93 51.4205C440.778 51.7992 441.513 52.2652 442.135 52.8182C442.756 53.3712 443.237 54.0227 443.578 54.7727C443.926 55.5227 444.104 56.3826 444.112 57.3523C444.104 58.7765 443.741 60.0114 443.021 61.0568C442.309 62.0947 441.278 62.9015 439.93 63.4773C438.589 64.0455 436.972 64.3295 435.078 64.3295C433.199 64.3295 431.563 64.0417 430.169 63.4659C428.782 62.8902 427.699 62.0379 426.919 60.9091C426.146 59.7727 425.741 58.3674 425.703 56.6932H430.464C430.517 57.4735 430.741 58.125 431.135 58.6477C431.536 59.1629 432.07 59.553 432.737 59.8182C433.411 60.0758 434.172 60.2045 435.021 60.2045C435.854 60.2045 436.578 60.0833 437.191 59.8409C437.813 59.5985 438.294 59.2614 438.635 58.8295C438.975 58.3977 439.146 57.9015 439.146 57.3409C439.146 56.8182 438.991 56.3788 438.68 56.0227C438.377 55.6667 437.93 55.3636 437.339 55.1136C436.756 54.8636 436.04 54.6364 435.191 54.4318L432.657 53.7955C430.695 53.3182 429.146 52.572 428.01 51.5568C426.873 50.5417 426.309 49.1742 426.316 47.4545C426.309 46.0455 426.684 44.8144 427.441 43.7614C428.207 42.7083 429.256 41.8864 430.589 41.2955C431.922 40.7045 433.438 40.4091 435.135 40.4091C436.862 40.4091 438.369 40.7045 439.657 41.2955C440.953 41.8864 441.96 42.7083 442.68 43.7614C443.4 44.8144 443.771 46.0341 443.794 47.4205H439.078Z" fill="white"/>
</g>
<defs>
<filter id="filter0_d_12_7" x="0" y="0" width="475" height="114" filterUnits="userSpaceOnUse" color-interpolation-filters="sRGB">
<feFlood flood-opacity="0" result="BackgroundImageFix"/>
<feColorMatrix in="SourceAlpha" type="matrix" values="0 0 0 0 0 0 0 0 0 0 0 0 0 0 0 0 0 0 127 0" result="hardAlpha"/>
<feOffset dy="4"/>
<feGaussianBlur stdDeviation="2"/>
<feComposite in2="hardAlpha" operator="out"/>
<feColorMatrix type="matrix" values="0 0 0 0 0 0 0 0 0 0 0 0 0 0 0 0 0 0 0.25 0"/>
<feBlend mode="normal" in2="BackgroundImageFix" result="effect1_dropShadow_12_7"/>
<feBlend mode="normal" in="SourceGraphic" in2="effect1_dropShadow_12_7" result="shape"/>
</filter>
<filter id="filter1_d_12_7" x="0" y="0" width="475" height="114" filterUnits="userSpaceOnUse" color-interpolation-filters="sRGB">
<feFlood flood-opacity="0" result="BackgroundImageFix"/>
<feColorMatrix in="SourceAlpha" type="matrix" values="0 0 0 0 0 0 0 0 0 0 0 0 0 0 0 0 0 0 127 0" result="hardAlpha"/>
<feOffset dy="4"/>
<feGaussianBlur stdDeviation="2"/>
<feComposite in2="hardAlpha" operator="out"/>
<feColorMatrix type="matrix" values="0 0 0 0 0 0 0 0 0 0 0 0 0 0 0 0 0 0 0.25 0"/>
<feBlend mode="normal" in2="BackgroundImageFix" result="effect1_dropShadow_12_7"/>
<feBlend mode="normal" in="SourceGraphic" in2="effect1_dropShadow_12_7" result="shape"/>
</filter>
</defs>
</svg>
